<?xml version="1.0" encoding="utf-8"?>
<!-- Generator: Adobe Illustrator 28.0.0, SVG Export Plug-In . SVG Version: 6.00 Build 0)  -->
<svg version="1.1" id="Capa_1" xmlns="http://www.w3.org/2000/svg" xmlns:xlink="http://www.w3.org/1999/xlink" x="0px" y="0px"
	 viewBox="0 0 242.1 35.6" style="enable-background:new 0 0 242.1 35.6;" xml:space="preserve">
<style type="text/css">
	.st0{fill-rule:evenodd;clip-rule:evenodd;fill:#FFFFFF;}
	.st1{fill:#FFFFFF;}
</style>
<path class="st0" d="M108,31.7c0.4-0.3,1.5-1.6,3-2.8c3.2-2.5,7.3-5,8.3-9.2c0.8-3.8-1.2-6.7-3.7-7.7c-4.6-1.9-6.6,2.3-7.6,3.2
	c-0.4-0.4-0.8-1.1-1.2-1.6c-0.4-0.4-1.1-1-1.6-1.4c-5.8-3.5-14.1,6.2-3.5,14l4.9,3.9C107,30.7,107.6,31.4,108,31.7L108,31.7z"/>
<g>
	<path class="st1" d="M6.1,18.9c0.4-0.9,1-1.7,1.7-2.5c0.7-0.8,1.5-1.5,2.4-2c0.2-1,0.6-1.9,1.1-2.8c0.5-0.9,1.1-1.7,1.8-2.5
		c1-1.1,2-2,3.2-2.9c1.1-0.8,2.4-1.5,3.8-1.9c1-0.3,2.1-0.5,3.2-0.6c1.1,0,2.2,0,3.3,0.2c1.3,0.3,2.6,0.8,3.7,1.6
		c1.1,0.8,2,1.8,2.7,2.9c0.7,1.3,1.2,2.6,1.4,4c0.2,1.4,0.3,2.8,0.1,4.3c-0.2,1.4-0.5,2.8-1.1,4.1c-0.5,1.3-1.2,2.6-2.1,3.7
		c-0.8,1.1-1.8,2.2-2.9,3c-1.1,0.9-2.3,1.6-3.7,2.1c-0.6,0.2-1.3,0.4-2,0.6c-0.7,0.1-1.4,0.2-2.2,0.2c-0.7,0-1.4-0.2-2.1-0.4
		c-0.7-0.2-1.3-0.6-1.8-1.1c-0.2-0.2-0.4-0.5-0.6-0.8c-0.6,0.5-1.2,1-1.8,1.4c-0.6,0.4-1.4,0.6-2.2,0.8c-0.9,0.1-1.8,0.1-2.6-0.1
		c-0.9-0.2-1.7-0.6-2.3-1.1c-0.7-0.6-1.2-1.3-1.5-2.2c-0.3-0.9-0.5-1.8-0.5-2.7c0-0.9,0.1-1.9,0.3-2.8C5.5,20.5,5.7,19.6,6.1,18.9z
		 M27.7,9.6c-0.8,0.4-1.5,0.9-2,1.5c-0.6,0.6-1.1,1.3-1.5,2.1c-0.4,0.7-0.8,1.5-1.2,2.3c-0.3,0.8-0.7,1.6-1,2.3
		c-0.8,1.8-1.6,3.5-2.5,5.3c-0.4,0.8-0.8,1.5-1.2,2.2s-0.9,1.4-1.5,2c0.2,0.6,0.5,1,1,1.3c0.4,0.3,0.9,0.4,1.4,0.5
		c0.5,0.1,1,0.1,1.6,0c0.5-0.1,1.1-0.2,1.5-0.4c1-0.4,1.8-1,2.6-1.7c0.8-0.8,1.4-1.6,2-2.5c0.6-0.9,1-1.9,1.5-2.9c0.4-1,0.8-2,1-2.9
		c0.3-0.9,0.5-2,0.7-3.1c0.2-1.1,0.2-2.2,0.2-3.4C30.2,11,29.9,9.9,29.5,9c-0.4-1-1.1-1.8-2-2.5s-1.9-1.1-3.1-1.3
		c-1.2-0.2-2.3-0.2-3.4,0c-1,0.2-2,0.6-3,1.1c-0.9,0.6-1.8,1.2-2.5,2c-0.6,0.7-1.2,1.5-1.7,2.3c-0.5,0.9-0.9,1.8-1.2,2.8
		c0.6-0.1,1.3,0,1.9,0.1c0.7,0.1,1.2,0.4,1.8,0.8c0.3,0.2,0.5,0.4,0.4,0.6c0,0.1-0.1,0.1-0.2,0.1c-0.1,0-0.3-0.1-0.6-0.1
		c-1.2-0.1-2.4,0.1-3.6,0.5c-0.1,0.9,0,1.9,0.3,2.7c0.2,0.9,0.7,1.7,1.4,2.4c0.1,0.1,0.1,0.1,0,0.2c-0.1,0-0.2,0.1-0.3,0.1
		c-0.1,0-0.3,0-0.4,0c-0.1,0-0.2,0-0.2,0c-0.6-0.1-1.1-0.4-1.6-0.8c-0.5-0.4-0.9-0.9-1.1-1.5c-0.3-0.6-0.4-1.2-0.5-1.8
		c-0.6,0.5-1.2,1-1.7,1.6c-0.5,0.6-0.9,1.3-1.2,2c-0.3,0.7-0.6,1.5-0.7,2.2c-0.2,0.8-0.2,1.5-0.1,2.3c0.1,0.9,0.4,1.8,0.9,2.5
		s1.3,1.2,2.2,1.3c0.9,0.1,1.8,0,2.5-0.5c0.7-0.5,1.3-1.1,1.8-1.9c0.5-0.8,1-1.7,1.4-2.6c0.4-0.9,0.8-1.8,1.1-2.7
		c0.3-0.9,0.7-1.8,1-2.8c0.3-0.9,0.7-1.8,1.1-2.7c0.3-0.7,0.8-1.5,1.2-2.3c0.5-0.8,1-1.5,1.6-2.1c0.6-0.6,1.3-1.2,2.1-1.6
		c0.8-0.4,1.6-0.7,2.5-0.7c0.3,0,0.6,0,1,0c0.3,0.1,0.6,0.2,0.9,0.3c0.1,0.1,0.2,0.1,0.1,0.2C27.8,9.5,27.8,9.6,27.7,9.6z"/>
	<path class="st1" d="M45.1,13.3c1.3,0,2.2,0.2,2.9,0.7c0.7,0.5,1,1,1.2,1.7c0.1,0.7,0,1.5-0.4,2.3c-0.4,0.8-1,1.6-1.8,2.3
		c-0.8,0.7-1.8,1.3-3.1,1.9c-1.2,0.5-2.6,0.8-4.2,0.9c0,0.6,0.2,1.2,0.3,1.7c0.2,0.5,0.4,1,0.7,1.4c0.3,0.4,0.7,0.7,1.2,0.9
		c0.5,0.2,1,0.4,1.7,0.4c0.5,0,1.1-0.1,1.7-0.3c0.6-0.2,1.2-0.5,1.8-1c0.6-0.4,1.2-1,1.7-1.6c0.5-0.6,1-1.4,1.5-2.3
		c0.1-0.2,0.2-0.3,0.3-0.4c0.1-0.1,0.2-0.1,0.4,0c0.1,0,0.2,0.1,0.2,0.3c0,0.1,0,0.3-0.1,0.5c-0.4,0.9-0.9,1.8-1.5,2.6
		c-0.6,0.8-1.3,1.5-2.1,2c-0.8,0.6-1.7,1-2.6,1.3c-0.9,0.3-1.9,0.5-2.9,0.5c-1.8,0-3.2-0.4-4.3-1.2c-1-0.8-1.7-1.7-2.1-2.9
		c-0.3-1.2-0.4-2.4-0.1-3.8c0.3-1.3,0.9-2.6,1.7-3.8c0.8-1.2,1.9-2.1,3.3-2.9C41.8,13.7,43.4,13.3,45.1,13.3z M44.6,14.5
		c-0.7,0-1.3,0.2-1.9,0.7c-0.6,0.5-1.1,1.1-1.5,1.8c-0.4,0.7-0.8,1.6-1.1,2.5c-0.3,0.9-0.4,1.8-0.4,2.7c0.8-0.1,1.6-0.3,2.3-0.7
		c0.7-0.4,1.3-0.9,1.9-1.5c0.5-0.6,1-1.2,1.3-1.8c0.3-0.6,0.6-1.2,0.7-1.8c0.1-0.5,0-1-0.2-1.3C45.5,14.6,45.1,14.5,44.6,14.5z"/>
	<path class="st1" d="M61.1,4.2c-1.3,3.7-2.4,7-3.4,9.9c-0.4,1.2-0.8,2.5-1.3,3.7c-0.4,1.2-0.8,2.3-1.1,3.3c-0.3,1-0.6,1.8-0.8,2.4
		s-0.3,1-0.4,1.1c-0.3,0.9-0.4,1.5-0.4,1.9c0.1,0.4,0.3,0.6,0.6,0.6c0.2,0,0.5-0.1,0.8-0.2c0.3-0.2,0.7-0.4,1.1-0.8
		c0.4-0.4,0.8-0.9,1.2-1.5c0.4-0.6,0.8-1.4,1.1-2.3c0.1-0.2,0.2-0.3,0.3-0.4c0.1-0.1,0.2-0.1,0.4,0c0.1,0,0.2,0.1,0.2,0.3
		c0,0.1,0,0.3,0,0.5c-0.7,1.9-1.6,3.4-2.8,4.5c-1.2,1.1-2.5,1.7-3.8,1.7c-0.7,0-1.2-0.1-1.7-0.4c-0.5-0.2-0.8-0.6-1-1.2
		s-0.3-1.2-0.3-2c0.1-0.8,0.3-1.8,0.6-2.9l5.1-14.8c0.4-1.3,1-2.2,1.7-2.7c0.7-0.5,1.8-0.8,3.1-0.8H61.1z"/>
	<path class="st1" d="M77.4,22.3c0.1-0.2,0.2-0.3,0.3-0.4c0.1-0.1,0.2-0.1,0.4,0c0.1,0,0.2,0.1,0.2,0.3c0,0.1,0,0.3,0,0.5
		c-0.7,1.9-1.6,3.4-2.8,4.5c-1.2,1.1-2.5,1.7-3.8,1.7c-1.3,0-2.3-0.5-2.8-1.5c-0.5-1-0.4-2.6,0.4-4.8l1.8-4.8
		c-0.8,0.4-1.5,0.7-2.3,0.8c-0.7,0.1-1.4,0.1-1.8,0c0.1,1,0.2,2,0.1,3.1c0,1.1-0.2,2.2-0.4,3.3c-0.2,1.1-0.5,2.2-1,3.2
		c-0.4,1-0.9,1.9-1.5,2.7c-0.6,0.8-1.3,1.4-2.1,1.9s-1.6,0.7-2.6,0.7c-0.8,0-1.5-0.1-1.9-0.4c-0.5-0.3-0.8-0.7-1-1.1
		c-0.2-0.5-0.3-1-0.3-1.5c0-0.6,0.1-1.1,0.2-1.7c0.1-0.5,0.2-1.1,0.4-1.5c0.2-0.5,0.3-0.8,0.4-1.1l3.2-9.6c0.5-1.6,1.1-3.2,1.8-4.8
		c0.7-1.6,1.4-3,2.3-4.3C65.4,6,66.3,5,67.3,4.3c1-0.7,2.1-1,3.2-0.9c0.9,0.1,1.5,0.4,1.9,0.9c0.4,0.5,0.6,1,0.6,1.8
		c0,0.7-0.2,1.5-0.6,2.4c-0.4,0.9-0.9,1.8-1.5,2.7c-0.6,0.9-1.4,1.8-2.2,2.7c-0.8,0.9-1.7,1.7-2.6,2.4l0.4,1c0.5,0.1,1,0.2,1.5,0.1
		c0.5,0,1-0.2,1.5-0.3c0.5-0.2,0.9-0.4,1.3-0.7c0.4-0.3,0.7-0.6,0.9-1c0.3-0.6,0.7-1.1,1.2-1.3c0.5-0.2,1.1-0.3,1.8-0.3h2
		c-0.6,1.7-1.1,3.3-1.6,4.7c-0.2,0.6-0.4,1.2-0.7,1.9s-0.4,1.2-0.6,1.8c-0.2,0.6-0.4,1.1-0.5,1.5c-0.1,0.4-0.3,0.8-0.3,1
		c-0.3,0.9-0.4,1.5-0.4,1.9c0.1,0.4,0.3,0.6,0.7,0.6c0.2,0,0.5-0.1,0.8-0.2c0.3-0.2,0.7-0.4,1.1-0.8c0.4-0.4,0.8-0.9,1.2-1.5
		C76.7,24,77,23.2,77.4,22.3z M59.8,32.4c0.3,0,0.7-0.2,1-0.7c0.4-0.4,0.7-1.1,1.1-1.8c0.4-0.8,0.7-1.6,1.1-2.6c0.3-1,0.7-2,1-3.1
		c0.3-1.1,0.5-2.1,0.7-3.2c0.2-1.1,0.3-2,0.4-3l-1.1-0.7L60.7,27c-0.2,0.7-0.5,1.4-0.7,2.1c-0.2,0.6-0.4,1.2-0.5,1.7
		c-0.1,0.5-0.2,0.9-0.1,1.2C59.5,32.3,59.6,32.4,59.8,32.4z M65.4,15.1c0.9-1,1.8-2.1,2.5-3.3c0.8-1.2,1.4-2.3,1.8-3.4
		c0.5-1.1,0.7-2,0.8-2.7c0.1-0.8-0.1-1.2-0.5-1.3c-0.4-0.1-0.8,0.1-1.2,0.6c-0.4,0.5-0.8,1.1-1.2,2.1c-0.4,0.9-0.9,2-1.4,3.3
		c-0.5,1.3-1,2.7-1.5,4.3L65.4,15.1z M77.6,11.7c-0.5,0.5-1.1,0.8-1.7,0.9c-0.6,0.1-1.1-0.1-1.6-0.6c-0.4-0.4-0.6-1-0.6-1.7
		c0-0.7,0.3-1.3,0.7-1.8C75,8,75.6,7.7,76.2,7.6c0.6,0,1.1,0.1,1.6,0.6c0.4,0.4,0.6,1,0.6,1.7C78.3,10.5,78.1,11.1,77.6,11.7z"/>
	<path class="st1" d="M89.6,27.2c0.4,0,0.8-0.1,1.2-0.4c0.4-0.2,0.9-0.6,1.3-1c0.4-0.4,0.9-1,1.2-1.5c0.4-0.6,0.7-1.2,1-1.9
		c0.1-0.2,0.2-0.3,0.3-0.4c0.1-0.1,0.3-0.1,0.4,0c0.1,0,0.2,0.1,0.2,0.3c0,0.1,0,0.3,0,0.5c-0.2,0.7-0.6,1.4-1,2.1
		c-0.4,0.7-1,1.4-1.6,2c-0.6,0.6-1.3,1.1-2,1.5c-0.7,0.4-1.5,0.6-2.3,0.6c-0.7,0-1.3-0.2-1.8-0.5c-0.5-0.3-0.9-0.8-1.1-1.4
		c-0.2-0.6-0.3-1.4-0.3-2.3c0.1-0.9,0.4-2,0.9-3.2c0.9-2.1,1.4-3.6,1.6-4.5c0.2-0.9,0-1.4-0.5-1.5c-0.4-0.1-0.8,0.1-1.4,0.5
		c-0.6,0.4-1.2,1.2-1.9,2.2c-0.7,1.1-1.5,2.5-2.3,4.2c-0.8,1.8-1.7,3.9-2.5,6.5l0,0h-0.1c-1.1,0-1.9-0.4-2.3-1.2
		c-0.4-0.8-0.4-1.9,0.1-3.2l3.7-10.7h0.4c0.4,0,0.8,0.1,1.2,0.3c0.3,0.2,0.6,0.5,0.9,0.8c0.2,0.3,0.4,0.7,0.4,1.1
		c0.1,0.4,0,0.8-0.1,1.2L83,17.4c0.7-1.1,1.5-2,2.4-2.7c0.8-0.7,1.7-1,2.7-1c1.9,0,3.1,0.7,3.4,2c0.4,1.3,0,3.3-1,5.9
		c-0.8,1.9-1.2,3.3-1.3,4.2C89,26.8,89.2,27.2,89.6,27.2z"/>
</g>
<g>
	<path class="st1" d="M121,15.3c0.5,0.9,1.1,1.8,1.8,2.5c0.7,0.7,1.5,1.3,2.4,1.8c0.9,0.5,1.8,0.8,2.8,1.1c1,0.3,2,0.4,3.1,0.5
		c0.2-0.6,0.5-1.1,0.7-1.7s0.5-1.1,0.7-1.7c0.6-1.5,1.2-2.9,1.9-4.4c0.7-1.4,1.4-2.8,2.3-4.2c0.5-0.7,1.1-1.4,1.8-2.2
		c0.7-0.8,1.5-1.5,2.3-2.1s1.8-1.1,2.7-1.5c1-0.4,1.9-0.5,2.9-0.4c0.6,0,1.2,0.3,1.7,0.6c0.5,0.4,0.9,0.8,1.2,1.4
		c0.3,0.7,0.5,1.4,0.5,2.1c0,0.7-0.1,1.5-0.3,2.2c-0.2,0.7-0.4,1.4-0.8,2.1c-0.3,0.7-0.7,1.3-1.1,1.8c-0.9,1.2-1.9,2.4-2.9,3.4
		c-1.1,1.1-2.2,2-3.5,2.9c-1,0.7-2.1,1.3-3.3,1.9c-1.1,0.5-2.3,0.9-3.5,1.3c-0.3,0.5-0.6,1-0.9,1.5c-0.3,0.5-0.7,0.9-1,1.4
		c0.8,0.3,1.8,0.7,2.9,1.2c1.1,0.5,2.1,1,3.2,1.4c1.1,0.4,2.1,0.7,3,0.9c1,0.2,1.8,0.1,2.5-0.3c0.1,0,0.2-0.1,0.4-0.2
		c0.1-0.1,0.2-0.1,0.3-0.1c0.1,0.1,0.1,0.4,0,0.7c-0.1,0.3-0.2,0.6-0.3,0.8c-0.5,0.8-1.1,1.3-1.9,1.6c-0.8,0.3-1.6,0.4-2.4,0.4
		c-0.9,0-1.7-0.1-2.6-0.4c-0.9-0.2-1.6-0.5-2.4-0.7c-1-0.3-2-0.7-3-1.2c-1-0.4-2-0.8-2.9-1.3c-0.9,0.7-2,1.2-3,1.6
		c-1.1,0.3-2.2,0.4-3.3,0.4c-0.6,0-1.1-0.2-1.7-0.4c-0.5-0.2-0.9-0.6-1.2-1c-0.3-0.4-0.4-0.9-0.4-1.4c0-0.5,0.3-1,0.7-1.6
		c0.6-0.7,1.2-1.2,1.9-1.5c0.7-0.3,1.5-0.5,2.3-0.6c0.8-0.1,1.6,0,2.5,0.1c0.8,0.1,1.7,0.3,2.5,0.5l0.6-1.3c-1.1,0-2.2-0.1-3.3-0.3
		c-1.1-0.2-2.2-0.6-3.2-1.2c-0.6-0.3-1.3-0.8-1.8-1.2c-0.6-0.5-1-1.1-1.3-1.7c-0.2-0.3-0.3-0.7-0.4-1.1c-0.1-0.4-0.1-0.8,0-1.2
		c0,0,0-0.1,0.1-0.3c0-0.1,0.1-0.3,0.2-0.4c0.1-0.1,0.1-0.2,0.2-0.3C120.9,15.2,121,15.2,121,15.3z M125.1,29.1
		c0.5-0.1,1-0.3,1.4-0.6c0.4-0.3,0.8-0.6,1.2-0.9l-1.7-0.7c-0.5-0.2-1-0.3-1.5-0.3c-0.5,0-1,0-1.5,0.1c-0.4,0.1-0.8,0.3-1.1,0.5
		c-0.3,0.2-0.4,0.6-0.4,0.9c0,0.3,0.1,0.5,0.4,0.6c0.2,0.1,0.5,0.3,0.8,0.3c0.3,0.1,0.7,0.1,1.1,0.1
		C124.2,29.2,124.7,29.1,125.1,29.1z M137.2,17.3c-0.2,0.6-0.5,1.2-0.8,1.8c-0.3,0.6-0.5,1.2-0.8,1.8c1.1-0.2,2.1-0.6,3.1-1.2
		c1-0.5,1.9-1.1,2.8-1.9c0.9-0.8,1.7-1.7,2.4-2.7c0.7-1,1.3-2.1,1.8-3.2c0.5-1.1,0.8-2.2,0.9-3.4c0.1-0.4,0.1-0.9,0-1.5
		c-0.1-0.5-0.2-1-0.4-1.4c-0.2-0.4-0.5-0.7-1-0.8c-0.4-0.2-0.9-0.1-1.5,0.2c-0.5,0.2-0.9,0.6-1.3,1c-0.4,0.4-0.7,0.9-1,1.3
		c-0.3,0.5-0.5,1-0.7,1.5c-0.2,0.5-0.4,1-0.6,1.5c-0.5,1.2-1,2.4-1.4,3.5C138.2,14.9,137.7,16.1,137.2,17.3z"/>
	<path class="st1" d="M162.6,22.3c0.1-0.2,0.2-0.3,0.3-0.4c0.1-0.1,0.2-0.1,0.4,0c0.1,0,0.2,0.1,0.2,0.3c0,0.1,0,0.3,0,0.5
		c-0.7,1.9-1.6,3.4-2.8,4.5c-1.2,1.1-2.5,1.7-3.8,1.7c-0.9,0-1.6-0.2-2.2-0.7c-0.5-0.5-0.8-1.2-0.9-2.1c-0.5,0.9-1.1,1.6-1.7,2.1
		c-0.6,0.5-1.3,0.7-2.1,0.7c-1.6,0-2.7-0.7-3.2-2.2c-0.5-1.5-0.4-3.5,0.4-6.2c0.2-0.8,0.6-1.6,0.9-2.4c0.4-0.8,0.8-1.5,1.3-2.1
		c0.5-0.6,1-1.1,1.7-1.5c0.6-0.4,1.3-0.6,2.1-0.6h1.1c-0.8,1.5-1.5,3.1-2.1,4.8s-1.1,3.1-1.5,4.5c-0.4,1.4-0.6,2.5-0.6,3.4
		c0,0.9,0.2,1.3,0.6,1.3c0.3,0,0.7-0.2,1-0.5s0.7-0.7,1-1.2c0.3-0.5,0.7-1,1-1.6s0.6-1.2,0.8-1.7c0,0,0-0.1,0.1-0.2l2.2-6.3
		c0.3-0.7,0.7-1.3,1.3-1.8c0.6-0.4,1.3-0.7,2.1-0.7h2c-0.6,1.7-1.1,3.3-1.6,4.7c-0.2,0.6-0.4,1.2-0.7,1.9c-0.2,0.6-0.4,1.2-0.6,1.8
		c-0.2,0.6-0.4,1.1-0.5,1.5c-0.1,0.4-0.3,0.8-0.3,1c-0.3,0.9-0.4,1.5-0.4,1.9c0.1,0.4,0.3,0.6,0.7,0.6c0.2,0,0.5-0.1,0.8-0.2
		c0.3-0.2,0.7-0.4,1.1-0.8c0.4-0.4,0.8-0.9,1.2-1.5C161.9,24,162.2,23.2,162.6,22.3z"/>
	<path class="st1" d="M179.7,22.3c0.1-0.2,0.2-0.3,0.3-0.4c0.1-0.1,0.3-0.1,0.4,0c0.1,0,0.2,0.1,0.2,0.3c0,0.1,0,0.3,0,0.5
		c-0.7,1.9-1.6,3.4-2.9,4.5c-1.2,1.1-2.5,1.7-3.8,1.7c-0.9,0-1.6-0.2-2.2-0.7c-0.5-0.4-0.8-1.2-0.9-2.1v-0.1c-0.6,0.7-1.3,1.4-2.1,2
		c-0.8,0.6-1.7,0.9-2.8,0.9c-1.1,0-1.9-0.4-2.6-1.1c-0.6-0.7-1-1.7-1.1-2.8c-0.1-1.1,0-2.3,0.4-3.6c0.4-1.3,1-2.5,1.9-3.6
		c0.9-1.1,2.1-2.1,3.5-2.8c1.4-0.7,3.1-1.1,5-1.1c0.2,0,0.5,0,0.7,0c0.2,0,0.4,0,0.6,0.1l2.1-6.1c0.4-1.3,1-2.2,1.7-2.7
		c0.7-0.5,1.7-0.8,3.1-0.8h0.9c-1.3,3.7-2.4,7-3.4,9.9c-0.4,1.2-0.8,2.5-1.3,3.7c-0.4,1.2-0.8,2.3-1.1,3.3c-0.3,1-0.6,1.8-0.8,2.4
		s-0.3,1-0.4,1.1c-0.3,0.9-0.4,1.5-0.4,1.9c0.1,0.4,0.3,0.6,0.7,0.6c0.2,0,0.5-0.1,0.8-0.2c0.3-0.2,0.7-0.4,1-0.8
		c0.4-0.4,0.8-0.9,1.2-1.5C178.9,24,179.3,23.2,179.7,22.3z M167.5,27.2c0.3,0,0.6-0.1,0.9-0.3c0.3-0.2,0.6-0.4,0.8-0.7
		c0.3-0.3,0.5-0.6,0.8-1c0.2-0.4,0.5-0.8,0.7-1.2c0.5-0.9,0.9-2,1.4-3.2l1.8-5.2c0-0.1-0.2-0.3-0.3-0.4c-0.2-0.1-0.4-0.2-0.8-0.2
		c-0.7,0-1.4,0.3-2.1,0.9c-0.7,0.6-1.3,1.3-1.8,2.3c-0.5,0.9-1,1.9-1.4,2.9c-0.4,1-0.6,2-0.8,2.9c-0.1,0.9-0.2,1.7-0.1,2.3
		C166.8,26.9,167.1,27.2,167.5,27.2z"/>
	<path class="st1" d="M199,27.2c0.4,0,0.8-0.1,1.2-0.4c0.4-0.2,0.9-0.6,1.3-1c0.4-0.4,0.9-1,1.2-1.5c0.4-0.6,0.7-1.2,1-1.9
		c0.1-0.2,0.2-0.3,0.3-0.4c0.1-0.1,0.2-0.1,0.4,0c0.1,0,0.2,0.1,0.2,0.3c0,0.1,0,0.3,0,0.5c-0.2,0.7-0.6,1.4-1.1,2.1
		c-0.5,0.7-1,1.4-1.6,2c-0.6,0.6-1.3,1.1-2,1.5c-0.7,0.4-1.5,0.6-2.3,0.6c-0.7,0-1.3-0.2-1.8-0.5c-0.5-0.3-0.9-0.8-1.1-1.4
		c-0.2-0.6-0.3-1.4-0.3-2.3c0.1-0.9,0.4-2,0.9-3.2c0.4-1,0.8-1.9,1.1-2.7c0.3-0.7,0.6-1.3,0.8-1.8c0.2-0.5,0.2-0.8,0.2-1
		c0-0.2-0.2-0.4-0.5-0.5c-0.4-0.1-0.8,0.1-1.4,0.5c-0.5,0.4-1.2,1.2-1.9,2.2c-0.7,1.1-1.4,2.5-2.2,4.2c-0.8,1.8-1.6,3.9-2.5,6.5
		c-0.7,0-1.4-0.1-1.8-0.3c-0.5-0.2-0.8-0.5-1-1c-0.2-0.5-0.2-1.1-0.1-1.9c0.1-0.8,0.4-1.8,1-3.1c0.5-1.1,0.9-2.1,1.3-3
		c0.4-0.9,0.7-1.6,0.9-2.2c0.2-0.6,0.3-1,0.4-1.4c0-0.3-0.1-0.5-0.5-0.6c-0.4-0.1-0.8,0.1-1.4,0.5c-0.6,0.4-1.2,1.2-1.9,2.2
		c-0.7,1.1-1.4,2.5-2.2,4.2c-0.8,1.8-1.6,3.9-2.5,6.5l0,0h-0.1c-1.1,0-1.9-0.4-2.3-1.2c-0.4-0.8-0.4-1.9,0.1-3.2l3.7-10.7h0.4
		c0.4,0,0.8,0.1,1.2,0.3c0.3,0.2,0.6,0.5,0.9,0.8c0.2,0.3,0.4,0.7,0.4,1.1c0.1,0.4,0,0.8-0.1,1.2l-0.1,0.2c0.7-1.1,1.5-1.9,2.3-2.6
		c0.8-0.6,1.6-1,2.6-1c1.2,0,2.1,0.3,2.6,0.9c0.5,0.6,0.8,1.3,0.7,2.2c0.7-0.9,1.4-1.7,2.1-2.3c0.8-0.6,1.6-0.8,2.4-0.8
		c0.7,0,1.3,0.1,1.8,0.3c0.5,0.2,0.9,0.6,1.2,1.1c0.2,0.5,0.3,1.2,0.2,2.1c-0.1,0.9-0.4,1.9-1,3.2c-1,2.2-1.5,3.9-1.7,5.1
		C198.4,26.6,198.6,27.2,199,27.2z"/>
	<path class="st1" d="M212,22.3c0.1-0.2,0.2-0.3,0.3-0.4c0.1-0.1,0.2-0.1,0.4,0c0.1,0,0.2,0.1,0.2,0.3c0,0.1,0,0.3,0,0.5
		c-0.7,1.9-1.6,3.4-2.8,4.5c-1.2,1.1-2.5,1.7-3.8,1.7c-0.7,0-1.2-0.1-1.7-0.4c-0.5-0.2-0.8-0.6-1-1.2c-0.2-0.5-0.3-1.2-0.3-2
		c0-0.8,0.3-1.8,0.6-2.9l2.2-6.3c0.3-0.7,0.7-1.3,1.3-1.8c0.6-0.4,1.3-0.7,2.1-0.7h2c-0.6,1.7-1.1,3.3-1.6,4.7
		c-0.2,0.6-0.4,1.2-0.7,1.9c-0.2,0.6-0.4,1.2-0.6,1.8c-0.2,0.6-0.4,1.1-0.5,1.5c-0.1,0.4-0.3,0.8-0.3,1c-0.3,0.9-0.4,1.5-0.4,1.9
		c0.1,0.4,0.3,0.6,0.7,0.6c0.2,0,0.5-0.1,0.8-0.2c0.3-0.2,0.7-0.4,1.1-0.8c0.4-0.4,0.8-0.9,1.2-1.5C211.3,24,211.7,23.2,212,22.3z
		 M212.2,11.7c-0.5,0.5-1.1,0.8-1.7,0.9c-0.6,0.1-1.1-0.1-1.6-0.6c-0.4-0.4-0.6-1-0.6-1.7c0-0.7,0.3-1.3,0.7-1.8
		c0.5-0.5,1.1-0.8,1.7-0.9c0.6,0,1.1,0.1,1.6,0.6c0.4,0.4,0.6,1,0.6,1.7C213,10.5,212.7,11.1,212.2,11.7z"/>
	<path class="st1" d="M222.8,4.2c-1.3,3.7-2.4,7-3.4,9.9c-0.4,1.2-0.8,2.5-1.3,3.7c-0.4,1.2-0.8,2.3-1.1,3.3c-0.3,1-0.6,1.8-0.8,2.4
		c-0.2,0.6-0.3,1-0.4,1.1c-0.3,0.9-0.4,1.5-0.4,1.9c0.1,0.4,0.3,0.6,0.6,0.6c0.2,0,0.5-0.1,0.8-0.2c0.3-0.2,0.7-0.4,1.1-0.8
		c0.4-0.4,0.8-0.9,1.2-1.5c0.4-0.6,0.8-1.4,1.1-2.3c0.1-0.2,0.2-0.3,0.3-0.4c0.1-0.1,0.2-0.1,0.4,0c0.1,0,0.2,0.1,0.2,0.3
		c0,0.1,0,0.3,0,0.5c-0.7,1.9-1.6,3.4-2.8,4.5c-1.2,1.1-2.5,1.7-3.8,1.7c-0.7,0-1.2-0.1-1.7-0.4c-0.5-0.2-0.8-0.6-1-1.2
		c-0.2-0.5-0.3-1.2-0.3-2c0-0.8,0.3-1.8,0.6-2.9l5.1-14.8c0.4-1.3,1-2.2,1.7-2.7c0.7-0.5,1.8-0.8,3.1-0.8H222.8z"/>
	<path class="st1" d="M237.3,22.3c0.1-0.2,0.2-0.3,0.3-0.4c0.1-0.1,0.3-0.1,0.4,0c0.1,0,0.2,0.1,0.2,0.3c0.1,0.1,0.1,0.3,0,0.5
		c-0.7,1.9-1.6,3.4-2.9,4.5c-1.2,1.1-2.5,1.7-3.8,1.7c-0.9,0-1.7-0.2-2.2-0.7c-0.5-0.5-0.8-1.2-0.9-2.2c-0.6,0.7-1.3,1.4-2.1,2
		c-0.8,0.6-1.7,0.9-2.8,0.9c-1.1,0-1.9-0.4-2.6-1.1c-0.6-0.7-1-1.7-1.1-2.8c-0.1-1.1,0.1-2.3,0.4-3.6c0.4-1.3,1-2.5,1.9-3.6
		c0.9-1.1,2-2.1,3.4-2.8c1.4-0.7,3.1-1.1,5-1.1c1.3,0,2.4,0.2,3.2,0.5c0.8,0.4,1.4,0.9,1.8,1.7c-0.5,1.5-1,2.8-1.4,4
		c-0.2,0.5-0.3,1-0.5,1.5c-0.2,0.5-0.3,1-0.5,1.4c-0.1,0.4-0.3,0.8-0.4,1.1c-0.1,0.3-0.2,0.5-0.2,0.6c-0.3,0.9-0.4,1.5-0.4,1.9
		c0.1,0.4,0.3,0.6,0.6,0.6c0.2,0,0.5-0.1,0.8-0.2c0.3-0.2,0.7-0.4,1.1-0.8c0.4-0.4,0.8-0.9,1.2-1.5C236.5,24,236.9,23.2,237.3,22.3z
		 M231.6,15.4c0-0.1-0.2-0.3-0.3-0.4c-0.2-0.1-0.4-0.2-0.8-0.2c-0.7,0-1.4,0.3-2.1,0.9c-0.7,0.6-1.3,1.4-1.8,2.3
		c-0.5,0.9-1,1.9-1.4,3c-0.4,1.1-0.7,2.1-0.8,3c-0.1,0.9-0.2,1.7-0.1,2.3c0.1,0.6,0.4,0.9,0.8,0.9c0.3,0,0.6-0.1,0.9-0.3
		c0.3-0.2,0.6-0.4,0.8-0.7c0.3-0.3,0.5-0.6,0.8-1c0.2-0.4,0.5-0.8,0.7-1.2c0.5-0.9,0.9-2,1.4-3.2L231.6,15.4z"/>
</g>
</svg>
