<?xml version="1.0" encoding="utf-8"?>
<!-- Generator: Adobe Illustrator 28.0.0, SVG Export Plug-In . SVG Version: 6.00 Build 0)  -->
<svg version="1.1" id="Capa_1" xmlns="http://www.w3.org/2000/svg" xmlns:xlink="http://www.w3.org/1999/xlink" x="0px" y="0px"
	 viewBox="0 0 19 24" style="enable-background:new 0 0 19 24;" xml:space="preserve">
<style type="text/css">
	.st0{fill-rule:evenodd;clip-rule:evenodd;fill:#FFFFFF;stroke:#4C0000;stroke-width:0.5;stroke-miterlimit:10;}
</style>
<path class="st0" d="M6.3,0.9c1.2,2.9,1.8,2.9,2.9,7c0.8,2.8,1,5.9,0.5,8.9c-0.6-0.5-0.6-1.1-1.5-1.8c-2.5-1.7-5.1-1.2-6.9,0.7
	c-4.2,4.5,2.6,11.5,7.4,6.7c1.1-1.1,1.6-2.9,2-4.6c1.1-4.4,0.6-7.5,0.1-11.9c8.1-1.6,6.1,5.1,5.3,9.2c1.5-2.6,4.1-8.8,2.4-12.3
	C16.6-1,10.6-0.1,6.3,0.9L6.3,0.9z"/>
</svg>
